<svg xmlns="http://www.w3.org/2000/svg" width="1000" height="695" viewBox="0 0 1000 695">
<rect width="100%" height="100%" fill="white"/>
<rect x="18" y="18" width="964" height="659" fill="none" stroke="#222" stroke-width="1.5"/>
<text x="60.0" y="67.5" font-family="Arial, sans-serif" font-size="22" text-anchor="start" fill="#111">SIMPLE BICYCLE - SIDE VIEW</text>
<text x="60.0" y="97.5" font-family="Arial, sans-serif" font-size="13" text-anchor="start" fill="#111">Generated via FreeCAD MCP</text>
<circle cx="220.0" cy="425.0" r="150.0" stroke="#111" stroke-width="5" fill="none" />
<circle cx="220.0" cy="425.0" r="136.0" stroke="#777" stroke-width="1.4" fill="none" />
<circle cx="220.0" cy="425.0" r="14.0" stroke="#777" stroke-width="2" fill="#ddd" />
<line x1="220.0" y1="425.0" x2="370.0" y2="425.0" stroke="#aaa" stroke-width="1" stroke-linecap="round" />
<line x1="220.0" y1="425.0" x2="358.6" y2="367.6" stroke="#aaa" stroke-width="1" stroke-linecap="round" />
<line x1="220.0" y1="425.0" x2="326.1" y2="318.9" stroke="#aaa" stroke-width="1" stroke-linecap="round" />
<line x1="220.0" y1="425.0" x2="277.4" y2="286.4" stroke="#aaa" stroke-width="1" stroke-linecap="round" />
<line x1="220.0" y1="425.0" x2="220.0" y2="275.0" stroke="#aaa" stroke-width="1" stroke-linecap="round" />
<line x1="220.0" y1="425.0" x2="162.6" y2="286.4" stroke="#aaa" stroke-width="1" stroke-linecap="round" />
<line x1="220.0" y1="425.0" x2="113.9" y2="318.9" stroke="#aaa" stroke-width="1" stroke-linecap="round" />
<line x1="220.0" y1="425.0" x2="81.4" y2="367.6" stroke="#aaa" stroke-width="1" stroke-linecap="round" />
<line x1="220.0" y1="425.0" x2="70.0" y2="425.0" stroke="#aaa" stroke-width="1" stroke-linecap="round" />
<line x1="220.0" y1="425.0" x2="81.4" y2="482.4" stroke="#aaa" stroke-width="1" stroke-linecap="round" />
<line x1="220.0" y1="425.0" x2="113.9" y2="531.1" stroke="#aaa" stroke-width="1" stroke-linecap="round" />
<line x1="220.0" y1="425.0" x2="162.6" y2="563.6" stroke="#aaa" stroke-width="1" stroke-linecap="round" />
<line x1="220.0" y1="425.0" x2="220.0" y2="575.0" stroke="#aaa" stroke-width="1" stroke-linecap="round" />
<line x1="220.0" y1="425.0" x2="277.4" y2="563.6" stroke="#aaa" stroke-width="1" stroke-linecap="round" />
<line x1="220.0" y1="425.0" x2="326.1" y2="531.1" stroke="#aaa" stroke-width="1" stroke-linecap="round" />
<line x1="220.0" y1="425.0" x2="358.6" y2="482.4" stroke="#aaa" stroke-width="1" stroke-linecap="round" />
<circle cx="720.0" cy="425.0" r="150.0" stroke="#111" stroke-width="5" fill="none" />
<circle cx="720.0" cy="425.0" r="136.0" stroke="#777" stroke-width="1.4" fill="none" />
<circle cx="720.0" cy="425.0" r="14.0" stroke="#777" stroke-width="2" fill="#ddd" />
<line x1="720.0" y1="425.0" x2="870.0" y2="425.0" stroke="#aaa" stroke-width="1" stroke-linecap="round" />
<line x1="720.0" y1="425.0" x2="858.6" y2="367.6" stroke="#aaa" stroke-width="1" stroke-linecap="round" />
<line x1="720.0" y1="425.0" x2="826.1" y2="318.9" stroke="#aaa" stroke-width="1" stroke-linecap="round" />
<line x1="720.0" y1="425.0" x2="777.4" y2="286.4" stroke="#aaa" stroke-width="1" stroke-linecap="round" />
<line x1="720.0" y1="425.0" x2="720.0" y2="275.0" stroke="#aaa" stroke-width="1" stroke-linecap="round" />
<line x1="720.0" y1="425.0" x2="662.6" y2="286.4" stroke="#aaa" stroke-width="1" stroke-linecap="round" />
<line x1="720.0" y1="425.0" x2="613.9" y2="318.9" stroke="#aaa" stroke-width="1" stroke-linecap="round" />
<line x1="720.0" y1="425.0" x2="581.4" y2="367.6" stroke="#aaa" stroke-width="1" stroke-linecap="round" />
<line x1="720.0" y1="425.0" x2="570.0" y2="425.0" stroke="#aaa" stroke-width="1" stroke-linecap="round" />
<line x1="720.0" y1="425.0" x2="581.4" y2="482.4" stroke="#aaa" stroke-width="1" stroke-linecap="round" />
<line x1="720.0" y1="425.0" x2="613.9" y2="531.1" stroke="#aaa" stroke-width="1" stroke-linecap="round" />
<line x1="720.0" y1="425.0" x2="662.6" y2="563.6" stroke="#aaa" stroke-width="1" stroke-linecap="round" />
<line x1="720.0" y1="425.0" x2="720.0" y2="575.0" stroke="#aaa" stroke-width="1" stroke-linecap="round" />
<line x1="720.0" y1="425.0" x2="777.4" y2="563.6" stroke="#aaa" stroke-width="1" stroke-linecap="round" />
<line x1="720.0" y1="425.0" x2="826.1" y2="531.1" stroke="#aaa" stroke-width="1" stroke-linecap="round" />
<line x1="720.0" y1="425.0" x2="858.6" y2="482.4" stroke="#aaa" stroke-width="1" stroke-linecap="round" />
<line x1="220.0" y1="425.0" x2="420.0" y2="425.0" stroke="#145bd6" stroke-width="6" stroke-linecap="round" />
<line x1="420.0" y1="425.0" x2="587.5" y2="387.5" stroke="#145bd6" stroke-width="6" stroke-linecap="round" />
<line x1="587.5" y1="387.5" x2="632.5" y2="272.5" stroke="#145bd6" stroke-width="6" stroke-linecap="round" />
<line x1="632.5" y1="272.5" x2="375.0" y2="265.0" stroke="#145bd6" stroke-width="6" stroke-linecap="round" />
<line x1="375.0" y1="265.0" x2="420.0" y2="425.0" stroke="#145bd6" stroke-width="6" stroke-linecap="round" />
<line x1="375.0" y1="265.0" x2="220.0" y2="425.0" stroke="#145bd6" stroke-width="6" stroke-linecap="round" />
<line x1="587.5" y1="387.5" x2="720.0" y2="425.0" stroke="#777" stroke-width="4" stroke-linecap="round" />
<line x1="632.5" y1="272.5" x2="720.0" y2="425.0" stroke="#777" stroke-width="4" stroke-linecap="round" />
<line x1="632.5" y1="272.5" x2="667.5" y2="235.0" stroke="#111" stroke-width="4" stroke-linecap="round" />
<line x1="667.5" y1="272.5" x2="667.5" y2="197.5" stroke="#111" stroke-width="4" stroke-linecap="round" />
<line x1="375.0" y1="265.0" x2="375.0" y2="222.5" stroke="#111" stroke-width="4" stroke-linecap="round" />
<line x1="337.5" y1="217.5" x2="407.5" y2="217.5" stroke="#111" stroke-width="6" stroke-linecap="round" />
<circle cx="420.0" cy="425.0" r="18.0" stroke="#333" stroke-width="2" fill="none" />
<line x1="420.0" y1="425.0" x2="467.5" y2="452.5" stroke="#555" stroke-width="3" stroke-linecap="round" />
<line x1="459.0" y1="460.0" x2="482.5" y2="460.0" stroke="#111" stroke-width="4" stroke-linecap="round" />
<line x1="220.0" y1="610.0" x2="720.0" y2="610.0" stroke="#333" stroke-width="1.4" stroke-linecap="round" />
<text x="470.0" y="632.5" font-family="Arial, sans-serif" font-size="15" text-anchor="middle" fill="#111">wheelbase 10 mm</text>
<line x1="220.0" y1="597.5" x2="220.0" y2="622.5" stroke="#333" stroke-width="1.4" stroke-linecap="round" />
<line x1="720.0" y1="597.5" x2="720.0" y2="622.5" stroke="#333" stroke-width="1.4" stroke-linecap="round" />
<line x1="915.0" y1="575.0" x2="915.0" y2="275.0" stroke="#333" stroke-width="1.4" stroke-linecap="round" />
<text x="927.5" y="422.5" font-family="Arial, sans-serif" font-size="15" text-anchor="middle" fill="#111">wheel diameter 6 mm</text>
<line x1="902.5" y1="575.0" x2="927.5" y2="575.0" stroke="#333" stroke-width="1.4" stroke-linecap="round" />
<line x1="902.5" y1="275.0" x2="927.5" y2="275.0" stroke="#333" stroke-width="1.4" stroke-linecap="round" />
<text x="60.0" y="632.5" font-family="Arial, sans-serif" font-size="12" text-anchor="start" fill="#111">File: simple_bicycle_drawing</text>
</svg>